/* XPM */
static char * top_right_active_xpm[] = {
"13 31 40 1",
" 	c None",
".	c #000000",
"+	c #D0D0D0",
"@	c #CACACA",
"#	c #CBCBCB",
"$	c #E0E0E0",
"%	c #DADADA",
"&	c #DADADA",
"*	c #CCCCCC",
"=	c #D5D5D5",
"-	c #D6D6D6",
";	c #DBDBDB",
">	c #F6F6F6",
",	c #FEFEFE",
"'	c #FFFFFF",
")	c #CCCCCC",
"!	c #DDDDDD",
"~	c #E0E0E0",
"{	c #F5F5F5",
"]	c #FDFDFD",
"^	c #CCCCCC",
"/	c #D7D7D7",
"(	c #E0E0E0",
"_	c #FCFCFC",
":	c #CCCCCC",
"<	c #D0D0D0",
"[	c #DEDEDE",
"}	c #CFCFCF",
"|	c #D8D8D8",
"1	c #F4F4F4",
"2	c #D1D1D1",
"3	c #E0E0E0",
"4	c #FBFBFB",
"5	c #D9D9D9",
"6	c #F1F1F1",
"7	c #DBDBDB",
"8	c #F9F9F9",
"9	c #D9D9D9",
"0	c #D9D9D9",
"a	c #D9D9D9",
"======       ",
"========     ",
"==========   ",
"===========  ",
"===========  ",
"============ ",
"============ ",
"=============",
"=============",
"=============",
"=============",
"=============",
"=============",
"=============",
"=============",
"=============",
"=============",
"=============",
"=============",
"=============",
"=============",
"=============",
"=============",
"=============",
"=============",
"=============",
"=============",
"=============",
"=============",
"=============",
"============="};
